<?xml version="1.0" encoding="UTF-8"?>
<svg width="800px" height="800px" viewBox="0 0 512 512" version="1.1" xmlns="http://www.w3.org/2000/svg" xmlns:xlink="http://www.w3.org/1999/xlink">
    <path fill="currentColor" d="M460.8,0v76.8H351.534c-8.854-15.3-25.387-25.6-44.334-25.6c-18.947,0-35.48,10.3-44.334,25.6h-13.734
        c-8.854-15.3-25.385-25.6-44.334-25.6c-18.949,0-35.48,10.3-44.334,25.6h-13.734c-8.851-15.3-25.383-25.6-44.331-25.6
        c-18.947,0-35.48,10.3-44.334,25.6H51.2V0H0v512h51.2v-76.8h6.866c8.854,15.3,25.387,25.6,44.334,25.6
        c18.947,0,35.48-10.3,44.334-25.6h13.734c8.854,15.3,25.387,25.6,44.334,25.6c18.947,0,35.48-10.3,44.334-25.6h13.734
        c8.854,15.3,25.387,25.6,44.334,25.6c18.947,0,35.48-10.3,44.334-25.6H460.8V512H512V0H460.8z M460.8,384H351.534
        c-8.854-15.3-25.387-25.6-44.334-25.6c-18.947,0-35.48,10.3-44.334,25.6h-13.734c-8.854-15.3-25.385-25.6-44.334-25.6
        c-18.949,0-35.48,10.3-44.334,25.6h-13.734c-8.854-15.3-25.387-25.6-44.334-25.6s-35.48,10.3-44.334,25.6H51.2V281.6h109.266
        c8.854,15.3,25.387,25.6,44.334,25.6s35.48-10.3,44.334-25.6h13.734c8.854,15.3,25.387,25.6,44.334,25.6
        c18.947,0,35.48-10.3,44.334-25.6h13.734c8.854,15.3,25.387,25.6,44.334,25.6c18.947,0,35.48-10.3,44.334-25.6h6.862V384z
        M460.8,230.4h-6.866c-8.854-15.3-25.387-25.6-44.334-25.6c-18.947,0-35.48,10.3-44.334,25.6h-13.734
        c-8.854-15.3-25.387-25.6-44.334-25.6c-18.947,0-35.48,10.3-44.334,25.6h-13.734c-8.854-15.3-25.385-25.6-44.334-25.6
        c-18.949,0-35.48,10.3-44.334,25.6H51.2V128h6.866c8.854,15.3,25.387,25.6,44.334,25.6c18.947,0,35.48-10.3,44.334-25.6h13.734
        c8.854,15.3,25.387,25.6,44.334,25.6c18.947,0,35.48-10.3,44.334-25.6h13.734c8.854,15.3,25.387,25.6,44.334,25.6
        c18.947,0,35.48-10.3,44.334-25.6H460.8V230.4z"/>
</svg>